<svg width="16" height="16" xmlns="http://www.w3.org/2000/svg" class="bi bi-balloon" fill="currentColor">

 <g>
  <title>Layer 1</title>
  <path fill="#f5b017" stroke-width="0" id="svg_1" d="m8,10.10891c2.403,-0.478 4,-2.504 4,-4.984a4,4 0 0 0 -8,0c0,2.48 1.597,4.506 4,4.984m5,-4.984c0,2.837 -1.789,5.227 -4.52,5.901l0.244,0.487a0.25,0.25 0 1 1 -0.448,0.224l-0.008,-0.017c0.008,0.11 0.02,0.202 0.037,0.29c0.054,0.27 0.161,0.488 0.419,1.003c0.288,0.578 0.235,1.15 0.076,1.629c-0.157,0.469 -0.422,0.867 -0.588,1.115l-0.004,0.007a0.25,0.25 0 1 1 -0.416,-0.278c0.168,-0.252 0.4,-0.6 0.533,-1.003c0.133,-0.396 0.163,-0.824 -0.049,-1.246l-0.013,-0.028c-0.24,-0.48 -0.38,-0.758 -0.448,-1.102a3.177,3.177 0 0 1 -0.052,-0.45l-0.04,0.08a0.25,0.25 0 1 1 -0.447,-0.224l0.244,-0.487c-2.731,-0.674 -4.52,-3.064 -4.52,-5.901a5,5 0 0 1 10,0m-6.938,-0.495a2.003,2.003 0 0 1 1.443,-1.443c0.268,-0.068 0.495,-0.286 0.495,-0.562c0,-0.276 -0.226,-0.504 -0.498,-0.459a3.003,3.003 0 0 0 -2.46,2.461c-0.046,0.272 0.182,0.498 0.458,0.498s0.494,-0.227 0.562,-0.495" fill-rule="evenodd"/>
 </g>
</svg>