<svg width="192" height="192" xmlns="http://www.w3.org/2000/svg" xml:space="preserve" enable-background="new 0 0 192 192" version="1.1">

 <g>
  <title>Layer 1</title>
  <g id="svg_1">
   <path id="svg_2" fill="#f5b017" d="m0,11c0,-6.62744 5.37256,-12 12,-12l168,0c6.62695,0 12,5.37256 12,12l0,168c0,6.62695 -5.37305,12 -12,12l-168,0c-6.62744,0 -12,-5.37305 -12,-12l0,-168l0,0z"/>
   <path id="svg_3" fill="#f5b017" d="m96,95"/>
  </g>
  <g id="svg_4">
   <circle id="svg_5" r="92" cy="96" cx="96" fill="#ffffff"/>
   <path id="svg_6" d="m96,96" fill="#ffffff"/>
  </g>
  <g id="svg_7">
   <path id="svg_8" fill="#f5b017" d="m85.21484,144.32324l-65.66406,0c0.28809,-10.75195 2.97656,-20.54394 8.06445,-29.37597c3.93555,-6.91211 9.59961,-13.15235 16.9917,-18.71973c1.05616,-0.67236 2.4961,-1.68018 4.31983,-3.02442l5.04004,-2.73583l9.5039,-5.32813c4.32032,-2.49609 6.48047,-6 6.48047,-10.51221c0,-3.55175 -1.75195,-6.57568 -5.25586,-9.07177c-3.50439,-2.4961 -7.6084,-3.74366 -12.3125,-3.74366c-9.98388,0 -15.83984,4.51172 -17.56787,13.53565l-15.26416,-3.45557c1.63233,-7.96826 5.40039,-14.23242 11.3042,-18.79248s13.08008,-6.83984 21.52783,-6.83984c9.12012,0 16.87207,2.78369 23.25586,8.35205c6.38428,5.56787 9.57617,12.33594 9.57617,20.30371c0,8.06445 -3.26367,14.97656 -9.79199,20.73633c-1.24805,1.05566 -2.63965,1.91992 -4.17578,2.59179l-4.75195,3.16797l-5.04004,2.59278l-4.75195,2.73535c-8.25586,4.7998 -14.54395,12.14355 -18.86426,22.03222l47.37597,0l0,15.55176z" clip-rule="evenodd" fill-rule="evenodd"/>
   <path id="svg_9" fill="#f5b017" d="m172.44922,96.22754c0,17.95215 -3.83984,31.44043 -11.52051,40.46387c-5.47168,6.24023 -12.91113,9.35937 -22.31933,9.35937c-12.76856,0 -21.98438,-5.75976 -27.64844,-17.2793c-4.51172,-9.21679 -6.76758,-20.06445 -6.76758,-32.54394c0,-16.6084 3.50391,-29.66406 10.51172,-39.16846c5.28027,-7.1997 13.48828,-10.7998 24.62402,-10.7998c12.0957,0 21.02442,5.71191 26.78418,17.13623c4.22363,8.63965 6.33594,19.58398 6.33594,32.83203zm-15.12012,0c0,-11.52051 -1.91992,-20.54395 -5.75976,-27.07227c-2.78418,-4.60791 -6.95996,-7.05615 -12.52832,-7.34375c-7.00782,-0.38427 -12.19141,3.55176 -15.55176,11.80762c-2.4961,6.14404 -3.74414,13.68018 -3.74414,22.6084c0,11.51953 1.91992,20.44824 5.75976,26.78418c2.97559,4.99219 7.34473,7.48828 13.1045,7.48828c6.71972,0 11.71191,-4.08008 14.97558,-12.24023c2.49609,-6.24024 3.74414,-13.58399 3.74414,-22.03223z" clip-rule="evenodd" fill-rule="evenodd"/>
  </g>
 </g>
</svg>