<svg width="16" height="16" xmlns="http://www.w3.org/2000/svg" class="bi bi-person-fill-check" fill="#000000">

 <g>
  <title>Layer 1</title>
  <path id="svg_1" fill="#f5b017" d="m12.5,16a3.5,3.5 0 1 0 0,-7a3.5,3.5 0 0 0 0,7zm1.679,-4.493l-1.335,2.226a0.75,0.75 0 0 1 -1.174,0.144l-0.774,-0.773a0.5,0.5 0 0 1 0.708,-0.708l0.547,0.548l1.17,-1.951a0.5,0.5 0 1 1 0.858,0.514zm-3.179,-6.507a3,3 0 1 1 -6,0a3,3 0 0 1 6,0z"/>
  <path id="svg_2" fill="#f5b017" d="m2,13c0,1 1,1 1,1l5.256,0a4.493,4.493 0 0 1 -0.256,-1.5a4.49,4.49 0 0 1 1.544,-3.393c-0.467,-0.069 -0.98,-0.107 -1.544,-0.107c-5,0 -6,3 -6,4z"/>
 </g>
</svg>